<svg xmlns="http://www.w3.org/2000/svg" width="28" height="32.951" viewBox="0 0 28 32.951">
  <g id="Group_2" data-name="Group 2" transform="translate(-1159 -440.049)">
    <g id="Path_3" data-name="Path 3" transform="translate(1164.815 440.049)" fill="none">
      <path d="M8,0c7.4,0,7.625,7.7,7.566,13.3,0,.3-.016,1.57-.016,1.57H.877s-.011-.941-.035-1.885C.72,8.238.352,0,8,0Z" stroke="none"/>
      <path d="M 8.000648498535156 3.000004768371582 C 6.367738723754883 3.000354766845703 5.686308860778809 3.506194114685059 5.315788269042969 3.88664436340332 C 4.659988403320312 4.56003475189209 4.211428642272949 5.735414505004883 3.982548713684082 7.380124568939209 C 3.77877140045166 8.844525337219238 3.783541679382324 10.4599142074585 3.814678192138672 11.86853408813477 L 12.57158088684082 11.86853408813477 C 12.56301498413086 10.45285034179688 12.50129318237305 8.952725410461426 12.26992893218994 7.571104526519775 C 11.98421859741211 5.864924430847168 11.48424911499023 4.640954971313477 10.78389930725098 3.933194160461426 C 10.38748931884766 3.532594680786133 9.667858123779297 3.000004768371582 8.0023193359375 3.000004768371582 L 8.000648498535156 3.000004768371582 M 8.002316474914551 4.76837158203125e-06 C 15.39658069610596 4.76837158203125e-06 15.62529468536377 7.702266216278076 15.56637859344482 13.29896450042725 C 15.56376838684082 13.60239410400391 15.55077838897705 14.86853408813477 15.55077838897705 14.86853408813477 L 0.8771991729736328 14.86853408813477 C 0.8771991729736328 14.86853408813477 0.8661890029907227 13.92788410186768 0.8417787551879883 12.98339462280273 C 0.7202186584472656 8.237964630126953 0.3517189025878906 0.001654624938964844 7.999998569488525 4.76837158203125e-06 C 8.000450134277344 4.76837158203125e-06 8.001865386962891 4.76837158203125e-06 8.002316474914551 4.76837158203125e-06 Z" stroke="none" fill="#b6b6b6"/>
    </g>
    <g id="Path_4" data-name="Path 4" transform="translate(1159 451.211)" fill="none">
      <path d="M0,.691H27.918s-.35,13.542.047,19.555c.009.011.035,1.542.035,1.542H0Z" stroke="none"/>
      <path d="M 3 3.691162109375 L 3 18.78900337219238 L 24.88625526428223 18.78900337219238 C 24.70473480224609 14.27761268615723 24.78313255310059 7.576783180236816 24.85343551635742 3.691162109375 L 3 3.691162109375 M 0 0.691162109375 L 27.91797065734863 0.691162109375 C 27.91797065734863 0.691162109375 27.56775093078613 14.23274230957031 27.9654598236084 20.24654197692871 C 27.97433090209961 20.25801277160645 28 21.78900337219238 28 21.78900337219238 L 0 21.78900337219238 L 0 0.691162109375 Z" stroke="none" fill="#b6b6b6"/>
    </g>
    <g id="Path_5" data-name="Path 5" transform="translate(1172 458)" fill="none">
      <path d="M1,1.343c.494,0,.9.271,1,2.707,0-.066,3.088.478,3.088.739,0,.152-3.084.013-3.1.472C1.945,7.224,1.519,8.005,1,8.005c-.552,0-1-1.02-1-3.505S.448,1.343,1,1.343Z" stroke="none"/>
      <path d="M 2.132488965988159 4.065526962280273 L 1.004794120788574 4.08640193939209 C 1.001686573028564 4.215493202209473 1.000001907348633 4.353228569030762 1.000001907348633 4.499999523162842 C 1.000001907348633 4.689458847045898 1.002748012542725 4.866133213043213 1.007753849029541 5.030557632446289 C 1.124764919281006 4.422415733337402 1.683086395263672 4.175005912780762 2.132488965988159 4.065526962280273 M 1.000001907348633 1.342589378356934 C 1.49429178237915 1.342589378356934 1.904831886291504 1.613839626312256 1.995051860809326 4.049559593200684 C 1.995060205459595 3.983287811279297 5.082761764526367 4.5278000831604 5.082761764526367 4.788759708404541 C 5.082761764526367 4.940359592437744 1.998331785202026 4.801449775695801 1.985771894454956 5.260709762573242 C 1.944991827011108 7.223579406738281 1.51859188079834 8.005249977111816 1.000001907348633 8.005249977111816 C 0.4477119445800781 8.005249977111816 1.9073486328125e-06 6.985279560089111 1.9073486328125e-06 4.499999523162842 C 1.9073486328125e-06 2.014719486236572 0.4477119445800781 1.342589378356934 1.000001907348633 1.342589378356934 Z" stroke="none" fill="#b6b6b6"/>
    </g>
  </g>
</svg>
