<svg xmlns="http://www.w3.org/2000/svg" xmlns:xlink="http://www.w3.org/1999/xlink" width="165" height="165" viewBox="0 0 165 165">
  <defs>
    <linearGradient id="linear-gradient" x1="0.5" x2="0.5" y2="1" gradientUnits="objectBoundingBox">
      <stop offset="0" stop-color="#0d70b3"/>
      <stop offset="1" stop-color="#1d9bef"/>
    </linearGradient>
  </defs>
  <g id="Group_5" data-name="Group 5" transform="translate(-1281 -212)">
    <circle id="Ellipse_1" data-name="Ellipse 1" cx="82.5" cy="82.5" r="82.5" transform="translate(1281 212)" fill="url(#linear-gradient)"/>
    <g id="Group_3" data-name="Group 3" transform="translate(163.08 -194.005)">
      <g id="Ellipse_2" data-name="Ellipse 2" transform="translate(1176.42 441.337)" fill="none" stroke="#fff" stroke-width="5">
        <ellipse cx="24" cy="23.5" rx="24" ry="23.5" stroke="none"/>
        <ellipse cx="24" cy="23.5" rx="21.5" ry="21" fill="none"/>
      </g>
      <g id="Path_2" data-name="Path 2" transform="translate(1159 495.733)" fill="none">
        <path d="M41.42,0A41.171,41.171,0,0,1,82.737,37.113c.026.021.1,2.827.1,2.827H0s.018-1.364.146-3.375C1.154,16.79,19.253,0,41.42,0Z" stroke="none"/>
        <path d="M 41.41977310180664 5.000003814697266 C 36.64403533935547 5.000003814697266 31.98677444458008 5.871726989746094 27.57735824584961 7.5909423828125 C 23.35458755493164 9.237386703491211 19.52349472045898 11.59090995788574 16.19049835205078 14.58612632751465 C 12.90597534179688 17.53778839111328 10.27548217773438 20.95804977416992 8.372077941894531 24.75191116333008 C 6.73138427734375 28.02210998535156 5.699760437011719 31.44111251831055 5.295578002929688 34.94049453735352 L 77.38052368164062 34.94049453735352 C 76.72755432128906 31.28968048095703 75.55478668212891 27.80672836303711 73.88092803955078 24.55435562133789 C 71.86615753173828 20.63954162597656 69.18559265136719 17.16884994506836 65.91372680664062 14.23869514465332 C 62.64680480957031 11.31295776367188 58.90578842163086 9.029172897338867 54.79458618164062 7.450771331787109 C 50.55886459350586 5.824558258056641 46.05892562866211 5.000003814697266 41.41977310180664 5.000003814697266 M 41.41977310180664 3.814697265625e-06 C 62.83123397827148 3.814697265625e-06 80.44812774658203 15.66632652282715 82.73735809326172 37.11307907104492 C 82.76358795166016 37.13410949707031 82.83953857421875 39.94049453735352 82.83953857421875 39.94049453735352 L 7.62939453125e-06 39.94049453735352 C 7.62939453125e-06 39.94049453735352 0.017822265625 38.57688140869141 0.1457595825195312 36.56595611572266 C 1.153907775878906 16.79046440124512 19.25340270996094 3.814697265625e-06 41.41977310180664 3.814697265625e-06 Z" stroke="none" fill="#fff"/>
      </g>
    </g>
  </g>
</svg>
