<svg xmlns="http://www.w3.org/2000/svg" width="28" height="32" viewBox="0 0 28 32">
  <g id="Group_1" data-name="Group 1" transform="translate(-1159 -441)">
    <g id="Ellipse_2" data-name="Ellipse 2" transform="translate(1165 441)" fill="none" stroke="#b6b6b6" stroke-width="2.5">
      <circle cx="8" cy="8" r="8" stroke="none"/>
      <circle cx="8" cy="8" r="6.75" fill="none"/>
    </g>
    <g id="Path_2" data-name="Path 2" transform="translate(1159 459.5)" fill="none">
      <path d="M14,0A13.916,13.916,0,0,1,27.965,12.544c.009.007.035.956.035.956H0s.006-.461.049-1.141C.39,5.675,6.508,0,14,0Z" stroke="none"/>
      <path d="M 14 2.500000953674316 C 11.02618980407715 2.500000953674316 8.18998908996582 3.577000617980957 6.013839721679688 5.532610416412354 C 4.316507339477539 7.057929992675781 3.186923980712891 8.960101127624512 2.744251251220703 11 L 25.14446830749512 11 C 24.56809425354004 8.83748722076416 23.39318656921387 6.897835254669189 21.7386589050293 5.41610050201416 C 19.63887977600098 3.535630226135254 16.89056968688965 2.500000953674316 14 2.500000953674316 M 14 9.5367431640625e-07 C 21.23714065551758 9.5367431640625e-07 27.19169998168945 5.295260429382324 27.9654598236084 12.54432010650635 C 27.97433090209961 12.55143070220947 28 13.5 28 13.5 L 0 13.5 C 0 13.5 0.00601959228515625 13.03909015655518 0.04925918579101562 12.35940074920654 C 0.3900203704833984 5.675230503082275 6.507709503173828 9.5367431640625e-07 14 9.5367431640625e-07 Z" stroke="none" fill="#b6b6b6"/>
    </g>
  </g>
</svg>
