<svg xmlns="http://www.w3.org/2000/svg" xmlns:xlink="http://www.w3.org/1999/xlink" width="107" height="98" viewBox="0 0 107 98">
  <defs>
    <clipPath id="clip-path">
      <rect id="Rectangle_2285" data-name="Rectangle 2285" width="107" height="98"/>
    </clipPath>
    <clipPath id="clip-path-2">
      <path id="Path_152" data-name="Path 152" d="M-2086.39,2327.12v11.49s25.06-3.294,27.386-7.211,6.366-14.08,7.712-18.12-.857-13.222-1.959-14.323-3.576-27.5-7.236-31.8-22.441-15.278-29.762-14.642-12.1.317-20.212,6.843-9.39-3.5-17.188,16.075-17.03,16.486-10.345,37.846,5.73,24.065,10.345,31.228,6.844,14.8,15.756,18.461,18.787-10.116,19.367-11.855.362-11.566.435-15.55-.435-11.591-.435-11.591h3.55Z" transform="translate(2140.3 -2252.485)" fill="none" stroke="#707070" stroke-width="1"/>
    </clipPath>
  </defs>
  <g id="GOT_logo_client" clip-path="url(#clip-path)">
    <rect id="Rectangle_2284" data-name="Rectangle 2284" width="107" height="98" fill="#fff" opacity="0"/>
    <g id="Group_398" data-name="Group 398" transform="translate(0 2)">
      <path id="Path_153" data-name="Path 153" d="M-6.13-13.336H15.787v43.9h5.355v-43.9h14.84v-6H-6.13Z" transform="translate(26.517 53.336)" fill="#5c5c5c"/>
      <g id="Ellipse_45" data-name="Ellipse 45" transform="translate(22.349 17.505)" fill="none" stroke="#5c5c5c" stroke-width="5">
        <circle cx="20" cy="20" r="20" stroke="none"/>
        <circle cx="20" cy="20" r="17.5" fill="none"/>
      </g>
      <g id="Mask_Group_5" data-name="Mask Group 5" transform="translate(-4.715 -12.422)" clip-path="url(#clip-path-2)">
        <path id="Path_151" data-name="Path 151" d="M35.132-20.5c-19.113,0-33.74,14.432-33.74,34.812,0,11.447,4.571,20.975,12.179,27.349,2.141,1.8,5.724,3.325,11.17,8.478a108.029,108.029,0,0,1,10.613,12.13S40.6,48.834,43.415,48.223c14.1-3.057,23.96-14.6,24.871-29.935V12.262H32.4v5.851l28.669.175c-1.073,15.5-11.6,24.69-25.938,24.69-15.115,0-26.719-11.019-26.719-28.669s11.6-28.571,26.719-28.571c10.922,0,19.21,5.656,23.013,14.432h8C61.265-12.8,49.759-20.5,35.132-20.5Z" transform="translate(11.689 34.134)" fill="#5c5c5c"/>
      </g>
      <text id="GODDESS" transform="translate(52 80)" fill="#5c5c5c" font-size="11" font-family="Poppins-Medium, Poppins" font-weight="500"><tspan x="0" y="0">GODDESS</tspan></text>
      <text id="OFTRUTH" transform="translate(52 92)" fill="#5c5c5c" font-size="6.41" font-family="Poppins-Light, Poppins" font-weight="300" letter-spacing="0.179em"><tspan x="0" y="0" baseline-shift="3.6627003395718853">OF</tspan><tspan y="0" font-size="11" letter-spacing="0.105em">TRUTH</tspan></text>
    </g>
  </g>
</svg>
