<svg xmlns="http://www.w3.org/2000/svg" xmlns:xlink="http://www.w3.org/1999/xlink" width="165" height="165" viewBox="0 0 165 165">
  <defs>
    <linearGradient id="linear-gradient" x1="0.5" x2="0.5" y2="1" gradientUnits="objectBoundingBox">
      <stop offset="0" stop-color="#bea895"/>
      <stop offset="1" stop-color="#bea895"/>
    </linearGradient>
  </defs>
  <g id="Group_5" data-name="Group 5" transform="translate(-1281 -212)">
    <circle id="Ellipse_1" data-name="Ellipse 1" cx="82.5" cy="82.5" r="82.5" transform="translate(1281 212)" fill="url(#linear-gradient)"/>
    <g id="Group_3" data-name="Group 3" transform="translate(163.08 -194.005)">
      <g id="Ellipse_2" data-name="Ellipse 2" transform="translate(1176.42 441.337)" fill="none" stroke="#fff" stroke-width="5">
        <ellipse cx="24" cy="23.5" rx="24" ry="23.5" stroke="none"/>
        <ellipse cx="24" cy="23.5" rx="21.5" ry="21" fill="none"/>
      </g>
      <g id="Path_2" data-name="Path 2" transform="translate(1159 495.733)">
        <path id="Path_42" data-name="Path 42" d="M41.42,0A41.171,41.171,0,0,1,82.737,37.113c.026.021.1,2.827.1,2.827H0s.018-1.364.146-3.375C1.154,16.79,19.253,0,41.42,0Z" fill="none"/>
        <path id="Path_43" data-name="Path 43" d="M41.42,5A37.949,37.949,0,0,0,27.577,7.591a37.165,37.165,0,0,0-11.387,7A34.388,34.388,0,0,0,8.372,24.752,30.438,30.438,0,0,0,5.3,34.94H77.381a36.777,36.777,0,0,0-3.5-10.386,35.893,35.893,0,0,0-19.086-17.1A37.166,37.166,0,0,0,41.42,5m0-5A41.171,41.171,0,0,1,82.737,37.113c.026.021.1,2.827.1,2.827H0s.018-1.364.146-3.374C1.154,16.791,19.253,0,41.42,0Z" fill="#fff"/>
      </g>
    </g>
  </g>
</svg>
